<svg width="118" height="73" viewBox="0 0 118 73" fill="none" xmlns="http://www.w3.org/2000/svg">
<path d="M25.704 27.4679C24.92 26.7399 23.772 26.0679 22.26 25.4519C20.748 24.7799 19.18 24.4439 17.556 24.4439C15.708 24.4439 14.112 24.8079 12.768 25.5359C11.48 26.2639 10.416 27.2719 9.57602 28.5599C8.73602 29.7919 8.12002 31.3039 7.72801 33.0959C7.33601 34.8319 7.14001 36.7079 7.14001 38.7239C7.14001 43.2599 8.20401 46.7599 10.332 49.2239C12.46 51.6879 15.232 52.9199 18.648 52.9199C20.384 52.9199 21.84 52.8359 23.016 52.6679C24.248 52.4999 25.144 52.3319 25.704 52.1639V27.4679ZM25.704 1.17591L32.676 -8.74996e-05V57.1199C31.164 57.5679 29.232 58.0159 26.88 58.4639C24.528 58.9119 21.784 59.1359 18.648 59.1359C15.848 59.1359 13.3 58.6599 11.004 57.7079C8.70802 56.7559 6.74802 55.4119 5.12401 53.6759C3.50001 51.8839 2.24001 49.7279 1.34401 47.2079C0.448015 44.6879 1.48863e-05 41.8599 1.48863e-05 38.7239C1.48863e-05 35.6999 0.364015 32.9559 1.09201 30.4919C1.87601 27.9719 2.99601 25.8159 4.45201 24.0239C5.90801 22.2319 7.64401 20.8319 9.66001 19.8239C11.732 18.8159 14.084 18.3119 16.716 18.3119C18.788 18.3119 20.608 18.5639 22.176 19.0679C23.744 19.5719 24.92 20.1039 25.704 20.6639V1.17591ZM64.512 13.1879C63.056 13.1879 61.796 12.6839 60.732 11.6759C59.668 10.6679 59.136 9.29591 59.136 7.55991C59.136 5.82391 59.668 4.45191 60.732 3.44391C61.796 2.43591 63.056 1.93191 64.512 1.93191C66.024 1.93191 67.284 2.43591 68.292 3.44391C69.356 4.45191 69.888 5.82391 69.888 7.55991C69.888 9.29591 69.356 10.6679 68.292 11.6759C67.284 12.6839 66.024 13.1879 64.512 13.1879ZM48.216 25.0319V19.2359H70.896V57.7919C70.896 60.4799 70.504 62.7479 69.72 64.5959C68.992 66.4999 67.984 68.0399 66.696 69.2159C65.464 70.3919 64.008 71.2319 62.328 71.7359C60.704 72.2399 58.968 72.4919 57.12 72.4919C54.992 72.4919 52.836 72.2679 50.652 71.8199C48.524 71.3719 46.508 70.6719 44.604 69.7199L46.704 63.8399C48.104 64.5119 49.644 65.0719 51.324 65.5199C53.06 66.0239 54.712 66.2759 56.28 66.2759C58.52 66.2759 60.368 65.6879 61.824 64.5119C63.28 63.3919 64.008 61.1799 64.008 57.8759V25.0319H48.216ZM89.628 58.2119V21.3359C95.34 19.3759 101.108 18.3959 106.932 18.3959C108.724 18.3959 110.432 18.4799 112.056 18.6479C113.68 18.7599 115.472 19.0399 117.432 19.4879L116.172 25.6199C114.38 25.1159 112.784 24.8079 111.384 24.6959C110.04 24.5279 108.556 24.4439 106.932 24.4439C103.516 24.4439 100.044 24.9199 96.516 25.8719V58.2119H89.628Z" fill="#A00ED9"/>
</svg>
